<svg width="409" height="94" viewBox="0 0 409 94" fill="none" xmlns="http://www.w3.org/2000/svg">
<path d="M47.8394 16.9771C47.8394 22.322 45.3391 27.2471 40.9838 30.4766C40.5805 30.7673 40.387 31.2517 40.4838 31.7361C40.5644 32.2206 40.9193 32.6081 41.3871 32.7373C43.8712 33.4155 46.2102 34.3682 48.4362 35.4824C39.8547 42.8134 38.0964 55.2456 37.9512 68.2461C37.9512 68.3914 37.9512 82.5368 37.9351 92.8229C34.3057 92.0801 30.7569 90.9675 27.3049 89.5126C20.4978 86.6222 14.3842 82.5045 9.1256 77.2403C5.6091 73.704 2.59265 69.7963 0.108521 65.5333C1.01184 46.8342 7.60931 36.3544 20.643 32.734C21.1269 32.6049 21.4656 32.2173 21.5624 31.7329C21.6592 31.2485 21.4656 30.764 21.0624 30.4734C16.7071 27.2438 14.2068 22.3349 14.2068 16.9739C14.2068 7.68896 21.756 0.131836 31.0311 0.131836C40.3063 0.131836 47.8394 7.69219 47.8394 16.9771ZM34.6444 27.1825C38.048 27.1825 41.0322 25.0025 42.0646 21.773C42.2743 21.0948 41.9033 20.3681 41.2258 20.1421C40.5483 19.916 39.8224 20.3035 39.5966 20.9818C38.903 23.1455 36.9189 24.5988 34.6444 24.5988C32.3539 24.5988 30.3537 23.1294 29.6762 20.9495C29.4503 20.2713 28.7245 19.8999 28.047 20.1098C27.3695 20.3197 26.9823 21.0463 27.2082 21.7407C28.2405 25.0025 31.2247 27.1825 34.6444 27.1825Z" fill="#4FDEFF"/>
<path d="M93.1184 31.5262C97.9738 31.5262 101.924 35.4824 101.924 40.3429C101.924 45.1872 97.9899 49.1434 93.1184 49.1434C88.2598 49.1434 84.3271 45.1872 84.3271 40.3429C84.3271 35.4824 88.2647 31.5262 93.1184 31.5262Z" fill="#4FDEFF"/>
<path d="M59.6632 30.4766C55.3079 27.247 52.8076 22.3381 52.8076 16.9771C52.8076 7.69214 60.3568 0.13501 69.632 0.13501C78.9072 0.13501 86.4402 7.69214 86.4402 16.9771C86.4402 22.322 83.94 27.247 79.5685 30.4766L77.4715 32.0267L80.0024 32.7372C81.3106 33.0925 82.5205 33.5608 83.6657 34.0613C82.4721 35.8699 81.7607 38.0175 81.7607 40.3428C81.7607 46.592 86.858 51.6946 93.1184 51.6946C94.4249 51.6946 95.667 51.4363 96.8284 51.0326C97.9382 55.4732 98.4576 60.5452 98.6028 66.163C96.2009 70.1822 93.3119 73.8977 89.96 77.2403C84.7175 82.5045 78.6023 86.6221 71.7935 89.5126C64.746 92.4837 57.2597 94 49.5492 94C46.4844 94 43.4679 93.7594 40.4999 93.2911C40.4999 82.9598 40.4999 68.3914 40.4999 68.246C40.7096 49.9184 44.1938 36.9195 59.2454 32.7372L61.7779 32.0267L59.6632 30.4766ZM58.0195 21.7406C59.0535 25.0025 62.0344 27.1824 65.4541 27.1824C68.8561 27.1824 71.8419 25.0025 72.8743 21.7729C73.1033 21.0947 72.7291 20.3681 72.0355 20.142C71.358 19.916 70.6321 20.3035 70.4224 20.9817C69.7288 23.1455 67.7286 24.5988 65.4541 24.5988C63.1636 24.5988 61.1795 23.1293 60.4859 20.9494C60.2762 20.2712 59.5503 19.8998 58.8728 20.1097C58.1792 20.3196 57.8082 21.0463 58.0195 21.7406Z" fill="#024352"/>
<path d="M151.746 3.45154C160.098 3.45154 166.744 5.36632 171.685 9.19559C176.627 13.0249 179.097 18.4497 179.097 25.4704H164.561C164.369 22.024 163.206 19.4391 161.07 17.7159C158.934 15.9927 155.635 15.1311 151.172 15.1311C148.048 15.1311 145.529 15.8172 143.617 17.1894C141.704 18.5615 140.748 20.4602 140.748 22.8856C140.748 24.8641 141.338 26.3001 142.517 27.1936C143.696 28.0871 145.37 28.8849 147.538 29.5869C149.705 30.2889 153.499 31.3101 158.918 32.6504C164.593 34.0545 168.96 35.5862 172.02 37.2456C175.08 38.905 177.407 41.0271 179.001 43.6119C180.595 46.1967 181.392 49.3718 181.392 53.1375C181.392 57.4774 180.244 61.3385 177.949 64.7213C175.654 68.1041 172.307 70.6726 167.908 72.4279C163.509 74.1832 158.536 75.0606 152.989 75.0606C144.51 75.0606 137.544 72.9385 132.093 68.6943C126.642 64.4501 123.916 58.6259 123.916 51.2228V50.7441H138.453C138.453 54.765 139.823 57.8763 142.565 60.0782C145.306 62.2801 148.94 63.381 153.467 63.381C157.484 63.381 160.719 62.663 163.174 61.227C165.628 59.791 166.856 57.6689 166.856 54.8607C166.856 53.0099 166.186 51.4462 164.847 50.1698C163.509 48.8934 161.723 47.8563 159.492 47.0585C157.261 46.2608 153.499 45.2556 148.207 44.0429C142.087 42.5112 137.623 40.8837 134.818 39.1605C132.014 37.4373 129.878 35.3471 128.411 32.8899C126.944 30.4327 126.211 27.4809 126.211 24.0345C126.211 19.7583 127.439 16.0249 129.893 12.8336C132.348 9.64228 135.552 7.281 139.505 5.74925C143.458 4.21751 147.538 3.45154 151.746 3.45154ZM216.681 22.5984C223.503 22.5984 228.954 24.9917 233.034 29.7784C237.115 34.5651 239.155 41.0435 239.155 49.2125C239.155 56.6797 237.194 62.8067 233.273 67.5934C229.352 72.3801 224.077 74.7735 217.446 74.7735C210.943 74.7735 206.001 72.2844 202.623 67.3062H202.431V90.8568H188.851V23.9386H201.762V30.2571H201.953C205.205 25.1511 210.114 22.5984 216.681 22.5984ZM201.953 48.8295C201.953 53.6799 202.973 57.5093 205.014 60.3176C207.054 63.126 209.987 64.5299 213.812 64.5299C217.765 64.5299 220.713 63.1258 222.658 60.3176C224.603 57.5095 225.575 53.6799 225.575 48.8295C225.575 43.8514 224.523 39.9421 222.419 37.1021C220.315 34.2621 217.382 32.8419 213.621 32.8419C209.859 32.8419 206.974 34.2461 204.966 37.0542C202.958 39.8624 201.953 43.7877 201.953 48.8295ZM261.246 5.07902V73.4332H247.666V5.07902H261.246ZM285.92 5.07902V16.2799H272.34V5.07902H285.92ZM285.92 23.9386V73.4332H272.34V23.9386H285.92ZM313.845 9.09985L313.845 23.9386H323.791V33.0334H313.845V57.5413C313.845 59.839 314.227 61.3707 314.992 62.1366C315.757 62.9025 317.287 63.2854 319.583 63.2854C321.24 63.2854 322.643 63.1578 323.791 62.9025V73.529C321.878 73.848 319.2 74.0076 315.757 74.0076C310.53 74.0076 306.64 73.1141 304.09 71.3271C301.54 69.54 300.265 66.4446 300.265 62.0409V33.0334H292.04V23.9386H300.265V9.09985H313.845ZM347.508 9.09985L347.508 23.9386H357.454V33.0334H347.508V57.5413C347.508 59.839 347.89 61.3707 348.655 62.1366C349.42 62.9025 350.95 63.2854 353.246 63.2854C354.903 63.2854 356.306 63.1578 357.454 62.9025V73.529C355.541 73.848 352.863 74.0076 349.42 74.0076C344.193 74.0076 340.303 73.1141 337.753 71.3271C335.203 69.54 333.928 66.4446 333.928 62.0409V33.0334H325.703V23.9386H333.928V9.09985H347.508ZM372.755 23.9386L383.944 57.8285H384.135L394.942 23.9386H409L388.343 79.6559C386.877 83.5492 384.853 86.3894 382.27 88.1763C379.688 89.9632 376.102 90.8568 371.512 90.8568C369.535 90.8568 366.698 90.6972 363 90.3782V79.1773C365.423 79.4963 367.814 79.6559 370.173 79.6559C372.085 79.6559 373.568 79.0655 374.62 77.8849C375.672 76.7042 376.198 75.2203 376.198 73.4332C376.198 72.412 376.006 71.3908 375.624 70.3696L358.219 23.9386L372.755 23.9386Z" fill="url(#paint0_linear_56_211)"/>
<defs>
<linearGradient id="paint0_linear_56_211" x1="130.922" y1="51.5202" x2="410.61" y2="54.5353" gradientUnits="userSpaceOnUse">
<stop stop-color="#4FDEFF"/>
<stop offset="1" stop-color="#024352"/>
</linearGradient>
</defs>
</svg>
