<svg width="102" height="94" viewBox="0 0 102 94" fill="none" xmlns="http://www.w3.org/2000/svg">
<path d="M47.8394 16.9771C47.8394 22.322 45.3391 27.2471 40.9838 30.4766C40.5805 30.7673 40.387 31.2517 40.4838 31.7361C40.5644 32.2206 40.9193 32.6081 41.3871 32.7373C43.8712 33.4155 46.2102 34.3682 48.4362 35.4824C39.8547 42.8134 38.0964 55.2456 37.9512 68.2461C37.9512 68.3914 37.9512 82.5368 37.9351 92.8229C34.3057 92.0801 30.7569 90.9675 27.3049 89.5126C20.4978 86.6222 14.3842 82.5045 9.1256 77.2403C5.6091 73.704 2.59265 69.7963 0.108521 65.5333C1.01184 46.8342 7.60931 36.3544 20.643 32.734C21.1269 32.6049 21.4656 32.2173 21.5624 31.7329C21.6592 31.2485 21.4656 30.764 21.0624 30.4734C16.7071 27.2438 14.2068 22.3349 14.2068 16.9739C14.2068 7.68896 21.756 0.131836 31.0311 0.131836C40.3063 0.131836 47.8394 7.69219 47.8394 16.9771ZM34.6444 27.1825C38.048 27.1825 41.0322 25.0025 42.0646 21.773C42.2743 21.0948 41.9033 20.3681 41.2258 20.1421C40.5483 19.916 39.8224 20.3035 39.5966 20.9818C38.903 23.1455 36.9189 24.5988 34.6444 24.5988C32.3539 24.5988 30.3537 23.1294 29.6762 20.9495C29.4503 20.2713 28.7245 19.8999 28.047 20.1098C27.3695 20.3197 26.9823 21.0463 27.2082 21.7407C28.2405 25.0025 31.2247 27.1825 34.6444 27.1825Z" fill="#4FDEFF"/>
<path d="M93.1184 31.5262C97.9738 31.5262 101.924 35.4824 101.924 40.3429C101.924 45.1872 97.9899 49.1434 93.1184 49.1434C88.2598 49.1434 84.3271 45.1872 84.3271 40.3429C84.3271 35.4824 88.2647 31.5262 93.1184 31.5262Z" fill="#4FDEFF"/>
<path d="M59.6632 30.4766C55.3079 27.247 52.8076 22.3381 52.8076 16.9771C52.8076 7.69214 60.3568 0.13501 69.632 0.13501C78.9072 0.13501 86.4402 7.69214 86.4402 16.9771C86.4402 22.322 83.94 27.247 79.5685 30.4766L77.4715 32.0267L80.0024 32.7372C81.3106 33.0925 82.5205 33.5608 83.6657 34.0613C82.4721 35.8699 81.7607 38.0175 81.7607 40.3428C81.7607 46.592 86.858 51.6946 93.1184 51.6946C94.4249 51.6946 95.667 51.4363 96.8284 51.0326C97.9382 55.4732 98.4576 60.5452 98.6028 66.163C96.2009 70.1822 93.3119 73.8977 89.96 77.2403C84.7175 82.5045 78.6023 86.6221 71.7935 89.5126C64.746 92.4837 57.2597 94 49.5492 94C46.4844 94 43.4679 93.7594 40.4999 93.2911C40.4999 82.9598 40.4999 68.3914 40.4999 68.246C40.7096 49.9184 44.1938 36.9195 59.2454 32.7372L61.7779 32.0267L59.6632 30.4766ZM58.0195 21.7406C59.0535 25.0025 62.0344 27.1824 65.4541 27.1824C68.8561 27.1824 71.8419 25.0025 72.8743 21.7729C73.1033 21.0947 72.7291 20.3681 72.0355 20.142C71.358 19.916 70.6321 20.3035 70.4224 20.9817C69.7288 23.1455 67.7286 24.5988 65.4541 24.5988C63.1636 24.5988 61.1795 23.1293 60.4859 20.9494C60.2762 20.2712 59.5503 19.8998 58.8728 20.1097C58.1792 20.3196 57.8082 21.0463 58.0195 21.7406Z" fill="#024352"/>
</svg>
