<svg width="37" height="35" viewBox="0 0 37 35" fill="none" xmlns="http://www.w3.org/2000/svg">
<path d="M12.6112 11.7425V9.94217C12.6112 8.46479 13.2316 7.04792 14.336 6.00326C15.4403 4.95859 16.9382 4.3717 18.5 4.3717C20.0618 4.3717 21.5596 4.95859 22.664 6.00326C23.7683 7.04792 24.3888 8.46479 24.3888 9.94217V11.7425C24.1413 19.1045 12.8575 19.1034 12.6112 11.7425ZM23.0117 19.0269L22.3642 18.8595L18.5 22.5159L14.6358 18.8606C11.6158 19.5144 8.94417 21.1719 7.10697 23.5317C5.26977 25.8914 4.38904 28.7966 4.62498 31.7187H32.375C32.6114 28.9045 31.8068 26.0999 30.0989 23.7848C28.3909 21.4697 25.8857 19.7878 23.0117 19.0269Z" fill="black"/>
</svg>
