<svg width="25" height="25" viewBox="0 0 25 25" fill="none" xmlns="http://www.w3.org/2000/svg">
<g clip-path="url(#clip0_45_170)">
<path d="M24.5078 10.1562C24.6641 10.9922 24.75 11.8672 24.75 12.7813C24.75 19.9219 19.9687 25 12.75 25C5.84375 25 0.25 19.4063 0.25 12.5C0.25 5.59375 5.84375 0 12.75 0C16.125 0 18.9453 1.24219 21.1094 3.25781L17.5859 6.78125V6.77344C16.2734 5.52344 14.6094 4.88281 12.7508 4.88281C8.62578 4.88281 5.27422 8.36719 5.27422 12.4922C5.27422 16.6164 8.62578 20.1094 12.7508 20.1094C16.493 20.1094 19.0398 17.9687 19.5641 15.0312H12.75V10.1562H24.5078Z" fill="white"/>
</g>
<defs>
<clipPath id="clip0_45_170">
<rect width="25" height="25" fill="white"/>
</clipPath>
</defs>
</svg>
