<svg width="35" height="35" viewBox="0 0 35 35" fill="none" xmlns="http://www.w3.org/2000/svg">
<path d="M31.6257 14.4158C31.8237 14.22 22.0833 23.0335 21.8968 23.1822C22.156 23.4097 31.7159 31.8436 31.6202 31.7518C31.8254 31.4361 31.9338 31.0673 31.932 30.6908V15.4549C31.9283 15.0868 31.8223 14.727 31.6257 14.4158ZM13.103 23.1822C12.6792 22.7961 3.55242 14.5788 3.37414 14.4158C3.17755 14.727 3.0715 15.0868 3.06789 15.4549V30.6908C3.06609 31.0673 3.17445 31.4361 3.37961 31.7518C3.11274 32.0312 12.974 23.2686 13.103 23.1822ZM21.082 23.9205L18.6757 26.0861C18.3489 26.3682 17.9316 26.5235 17.4999 26.5235C17.0682 26.5235 16.6509 26.3682 16.3241 26.0861L13.9179 23.9205L4.18352 32.501C4.55103 32.7068 4.96545 32.8141 5.38664 32.8127H29.6132C30.0344 32.8141 30.4488 32.7068 30.8163 32.501L21.082 23.9205ZM17.4999 9.09473C16.1042 9.09502 14.7657 9.64921 13.7783 10.6356C12.7908 11.622 12.2353 12.96 12.2335 14.3557C12.5228 21.3425 22.4781 21.3404 22.7663 14.3557C22.7646 12.96 22.209 11.622 21.2216 10.6356C20.2342 9.64921 18.8956 9.09502 17.4999 9.09473ZM21.5359 14.7713C21.4321 15.5886 21.0348 16.3403 20.4182 16.8865C19.8015 17.4328 19.0073 17.7364 18.1835 17.7408C18.0945 17.7625 18.0017 17.7635 17.9122 17.7439C17.8228 17.7242 17.7389 17.6844 17.6672 17.6274C17.5955 17.5704 17.5377 17.4978 17.4983 17.4151C17.4588 17.3324 17.4388 17.2418 17.4398 17.1502C17.4512 17.0057 17.519 16.8714 17.6284 16.7763C17.7378 16.6812 17.8802 16.6328 18.0249 16.6416C18.5097 16.6747 18.9924 16.5527 19.4033 16.2933C19.8142 16.0339 20.1319 15.6505 20.3104 15.1986C20.489 14.7467 20.5192 14.2497 20.3966 13.7795C20.274 13.3093 20.005 12.8903 19.6285 12.5831C19.2521 12.2759 18.7876 12.0964 18.3024 12.0706C17.8172 12.0448 17.3363 12.1741 16.9294 12.4397C16.5225 12.7052 16.2106 13.0934 16.0389 13.5479C15.8672 14.0025 15.8445 14.4999 15.9741 14.9682L16.5484 13.8689C16.5806 13.8037 16.6256 13.7456 16.6806 13.698C16.7356 13.6503 16.7995 13.6141 16.8686 13.5914C16.9378 13.5687 17.0107 13.56 17.0832 13.5658C17.1558 13.5716 17.2264 13.5918 17.2911 13.6252C17.3557 13.6587 17.413 13.7046 17.4597 13.7604C17.5064 13.8162 17.5415 13.8808 17.563 13.9503C17.5845 14.0198 17.5919 14.0929 17.5848 14.1653C17.5778 14.2377 17.5563 14.308 17.5218 14.3721L16.5538 16.2205C16.4866 16.3392 16.3947 16.4421 16.2844 16.5224C16.174 16.6026 16.0478 16.6583 15.9142 16.6858C15.7805 16.7133 15.6426 16.7118 15.5095 16.6815C15.3765 16.6513 15.2515 16.5929 15.1429 16.5104L13.6335 15.2471C13.5226 15.1542 13.453 15.0211 13.4402 14.877C13.4274 14.733 13.4723 14.5897 13.5652 14.4787C13.658 14.3678 13.7911 14.2982 13.9352 14.2854C14.0793 14.2726 14.2226 14.3175 14.3335 14.4104L14.8312 14.826C14.7479 14.2374 14.8214 13.6372 15.0441 13.0861C15.2669 12.535 15.6311 12.0523 16.0999 11.6869C18.3902 9.82426 21.9663 11.8548 21.5359 14.7713Z" fill="black"/>
<path d="M17.0569 25.2712C17.1814 25.3745 17.3381 25.4311 17.4999 25.4311C17.6616 25.4311 17.8183 25.3745 17.9428 25.2712C17.9428 25.2712 30.6396 13.8317 30.8764 13.6173L18.6756 2.63057C18.3493 2.3475 17.9318 2.19165 17.4999 2.19165C17.0679 2.19165 16.6504 2.3475 16.3241 2.63057L4.12329 13.6173C4.22665 13.7212 17.0569 25.2712 17.0569 25.2712ZM17.4999 20.7157C15.8138 20.7133 14.1975 20.0424 13.0053 18.8502C11.813 17.6579 11.1422 16.0416 11.1397 14.3556C11.4886 5.92549 23.5122 5.92823 23.86 14.3556C23.8576 16.0416 23.1867 17.6579 21.9944 18.8502C20.8022 20.0424 19.1859 20.7133 17.4999 20.7157Z" fill="black"/>
</svg>
