<svg width="45" height="45" viewBox="0 0 45 45" fill="none" xmlns="http://www.w3.org/2000/svg">
<path d="M30.2437 27.7875C29.3326 29.1216 28.0921 30.1976 26.6427 30.9111C25.1933 31.6246 23.5841 31.9515 21.9712 31.86C20.3582 31.7685 18.7963 31.2618 17.4369 30.3889C16.0774 29.5161 14.9666 28.3067 14.2122 26.8782C13.4577 25.4497 13.0852 23.8504 13.1308 22.2355C13.1764 20.6206 13.6385 19.045 14.4723 17.6612C15.3062 16.2775 16.4834 15.1328 17.8899 14.338C19.2964 13.5432 20.8844 13.1254 22.5 13.125C22.8619 13.0965 23.2255 13.0965 23.5875 13.125C22.9017 14.5006 22.5321 16.012 22.5056 17.5488C22.4792 19.0856 22.7966 20.6088 23.4347 22.0071C24.0727 23.4054 25.0153 24.6434 26.1934 25.6306C27.3715 26.6177 28.7553 27.3291 30.2437 27.7125V27.7875Z" fill="#FFFEFE"/>
<path d="M41.25 17.8125C41.25 19.4813 40.7552 21.1126 39.828 22.5001C38.9009 23.8877 37.5831 24.9691 36.0414 25.6077C34.4996 26.2463 32.8031 26.4134 31.1664 26.0879C29.5297 25.7623 28.0263 24.9587 26.8463 23.7787C25.6663 22.5987 24.8627 21.0953 24.5371 19.4586C24.2116 17.8219 24.3787 16.1254 25.0173 14.5836C25.6559 13.0419 26.7373 11.7241 28.1249 10.797C29.5124 9.86985 31.1437 9.375 32.8125 9.375C33.0058 9.35642 33.2004 9.35642 33.3938 9.375H33.525C32.8734 10.4514 32.6015 11.7152 32.7527 12.9643C32.904 14.2135 33.4697 15.3758 34.3594 16.2656C35.2492 17.1553 36.4115 17.721 37.6607 17.8723C38.9098 18.0235 40.1736 17.7516 41.25 17.1C41.2581 17.1434 41.2581 17.1879 41.25 17.2312C41.2686 17.4246 41.2686 17.6192 41.25 17.8125ZM22.5 11.25C22.0027 11.25 21.5258 11.0525 21.1742 10.7008C20.8225 10.3492 20.625 9.87228 20.625 9.375V5.625C20.625 5.12772 20.8225 4.65081 21.1742 4.29917C21.5258 3.94754 22.0027 3.75 22.5 3.75C22.9973 3.75 23.4742 3.94754 23.8258 4.29917C24.1775 4.65081 24.375 5.12772 24.375 5.625V9.375C24.375 9.87228 24.1775 10.3492 23.8258 10.7008C23.4742 11.0525 22.9973 11.25 22.5 11.25ZM34.425 36.3C33.9331 36.2979 33.4617 36.1026 33.1125 35.7562L30.45 33.1125C30.0969 32.7594 29.8986 32.2806 29.8986 31.7813C29.8986 31.2819 30.0969 30.8031 30.45 30.45C30.8031 30.0969 31.2819 29.8986 31.7813 29.8986C32.2806 29.8986 32.7594 30.0969 33.1125 30.45L35.7563 33.1125C36.1055 33.4638 36.3015 33.939 36.3015 34.4344C36.3015 34.9297 36.1055 35.4049 35.7563 35.7562C35.5811 35.93 35.3733 36.0675 35.1448 36.1608C34.9164 36.2541 34.6718 36.3014 34.425 36.3ZM22.5 41.25C22.0027 41.25 21.5258 41.0525 21.1742 40.7008C20.8225 40.3492 20.625 39.8723 20.625 39.375V35.625C20.625 35.1277 20.8225 34.6508 21.1742 34.2992C21.5258 33.9475 22.0027 33.75 22.5 33.75C22.9973 33.75 23.4742 33.9475 23.8258 34.2992C24.1775 34.6508 24.375 35.1277 24.375 35.625V39.375C24.375 39.8723 24.1775 40.3492 23.8258 40.7008C23.4742 41.0525 22.9973 41.25 22.5 41.25ZM10.575 36.3C10.3282 36.3014 10.0836 36.2541 9.85518 36.1608C9.62673 36.0675 9.41895 35.93 9.24375 35.7562C8.89453 35.4049 8.69851 34.9297 8.69851 34.4344C8.69851 33.939 8.89453 33.4638 9.24375 33.1125L11.8875 30.45C12.2406 30.0969 12.7194 29.8986 13.2188 29.8986C13.7181 29.8986 14.1969 30.0969 14.55 30.45C14.9031 30.8031 15.1014 31.2819 15.1014 31.7813C15.1014 32.2806 14.9031 32.7594 14.55 33.1125L11.8875 35.7562C11.5383 36.1026 11.0669 36.2979 10.575 36.3ZM9.375 24.375H5.625C5.12772 24.375 4.65081 24.1775 4.29917 23.8258C3.94754 23.4742 3.75 22.9973 3.75 22.5C3.75 22.0027 3.94754 21.5258 4.29917 21.1742C4.65081 20.8225 5.12772 20.625 5.625 20.625H9.375C9.87228 20.625 10.3492 20.8225 10.7008 21.1742C11.0525 21.5258 11.25 22.0027 11.25 22.5C11.25 22.9973 11.0525 23.4742 10.7008 23.8258C10.3492 24.1775 9.87228 24.375 9.375 24.375ZM13.2188 15.0938C12.972 15.0952 12.7274 15.0479 12.4989 14.9546C12.2705 14.8613 12.0627 14.7238 11.8875 14.55L9.24375 11.8875C8.93658 11.5288 8.77606 11.0674 8.79429 10.5955C8.81252 10.1236 9.00814 9.676 9.34207 9.34207C9.676 9.00814 10.1236 8.81252 10.5955 8.79429C11.0674 8.77606 11.5288 8.93658 11.8875 9.24375L14.55 11.8875C14.7257 12.0618 14.8652 12.2692 14.9604 12.4977C15.0556 12.7262 15.1046 12.9712 15.1046 13.2188C15.1046 13.4663 15.0556 13.7113 14.9604 13.9398C14.8652 14.1683 14.7257 14.3757 14.55 14.55C14.3748 14.7238 14.167 14.8613 13.9386 14.9546C13.7101 15.0479 13.4655 15.0952 13.2188 15.0938Z" fill="#FFFEFE"/>
</svg>
