<svg width="35" height="35" viewBox="0 0 35 35" fill="none" xmlns="http://www.w3.org/2000/svg">
<g clip-path="url(#clip0_45_155)">
<path d="M26.25 14.3883V8.75008C26.25 3.92651 22.3258 0.00012207 17.5 0.00012207C12.6754 0.00012207 8.75007 3.92651 8.75007 8.75008V14.3883H13.1251V8.75008C13.125 6.33603 15.0871 4.37501 17.5 4.37501C19.9119 4.37501 21.8751 6.33615 21.8751 8.75008V14.3883H26.25ZM4.375 19.6875V30.6251C4.375 33.0412 6.33397 35.0001 8.75007 35.0001H26.2502C28.6661 35.0001 30.625 33.0412 30.625 30.6251V19.6875C30.625 17.2714 28.6661 15.3124 26.25 15.3124H8.75007C6.33397 15.3126 4.375 17.2714 4.375 19.6875ZM17.5 21.8751C18.7081 21.8751 19.6875 22.8535 19.6875 24.0625C19.6875 24.8635 19.2356 25.5344 18.5937 25.9146V29.5312C18.5937 30.1359 18.1045 30.625 17.4999 30.625C16.8952 30.625 16.4061 30.1358 16.4061 29.5312V25.9146C15.7641 25.5344 15.3123 24.8635 15.3123 24.0625C15.3126 22.8533 16.292 21.8751 17.5 21.8751Z" fill="black"/>
</g>
<defs>
<clipPath id="clip0_45_155">
<rect width="35" height="35" fill="white"/>
</clipPath>
</defs>
</svg>
